<svg width="24" height="24" fill="none" xmlns="http://www.w3.org/2000/svg"><path d="M20 3.75V18.5a.5.5 0 0 0 .992.09L21 18.5V5h1.25a1.75 1.75 0 0 1 1.744 1.606L24 6.75v12a3.25 3.25 0 0 1-3.066 3.245L20.75 22H3.25a3.25 3.25 0 0 1-3.245-3.066L0 18.75v-15a1.75 1.75 0 0 1 1.606-1.744L1.75 2h16.5a1.75 1.75 0 0 1 1.744 1.606L20 3.75ZM7.747 11.004H5.25a1.75 1.75 0 0 0-1.744 1.606l-.006.144v2.496a1.75 1.75 0 0 0 1.606 1.744L5.25 17h2.497a1.75 1.75 0 0 0 1.744-1.607l.005-.143v-2.496a1.75 1.75 0 0 0-1.606-1.745l-.143-.005ZM15.75 15.5h-3.5l-.102.007a.75.75 0 0 0 0 1.486l.102.007h3.5l.102-.007a.75.75 0 0 0 0-1.486l-.102-.007Zm-10.5-2.996h2.497a.25.25 0 0 1 .243.192l.007.058v2.496a.25.25 0 0 1-.193.243l-.057.007H5.25a.25.25 0 0 1-.243-.193L5 15.25v-2.496a.25.25 0 0 1 .193-.244l.057-.006Zm10.5-1.5h-3.5l-.102.006a.75.75 0 0 0 0 1.487l.102.007h3.5l.102-.007a.75.75 0 0 0 0-1.487l-.102-.006Zm0-4.507H4.25l-.102.007a.75.75 0 0 0 0 1.486l.102.007h11.5l.102-.007a.75.75 0 0 0 0-1.486l-.102-.007Z" fill="#4362D0"/></svg>