<svg width="74" height="24" viewBox="0 0 74 24" fill="none" xmlns="http://www.w3.org/2000/svg">
<rect x="0.5" y="0.5" width="73" height="23" rx="11.5" fill="#F5F7F9"/>
<path d="M17.5 12.499H14.5V15.499H13.5V12.499H10.5V11.499H13.5V8.49902H14.5V11.499H17.5V12.499Z" fill="#879298"/>
<path d="M27.5781 8.23047H25.5273V6.80078H24.4258V8.23047H22.3633V9.13281H27.5781V8.23047ZM22.7031 12.1797C22.6973 13.6152 23.6582 14.623 24.9766 14.6172C26.3066 14.623 27.2559 13.6152 27.2617 12.1797C27.2559 10.7676 26.3066 9.76562 24.9766 9.76562C23.6582 9.76562 22.6973 10.7676 22.7031 12.1797ZM23.6875 12.1797C23.6816 11.3066 24.2207 10.6973 24.9766 10.6914C25.7324 10.6973 26.2773 11.3066 26.2773 12.1797C26.2773 13.0703 25.7324 13.668 24.9766 13.668C24.2207 13.668 23.6816 13.0703 23.6875 12.1797ZM28.0586 16.5039H29.1133V11.7812H30.3203V16.9961H31.375V6.49609H30.3203V10.8672H29.1133V6.73047H28.0586V16.5039ZM36.625 9.58984V8.47656H39.0156V7.55078H33.0977V8.47656H35.5V9.58984C35.4883 11.4004 34.3164 13.3691 32.7344 14.1133L33.3789 14.9922C34.6035 14.3945 35.5879 13.1172 36.0742 11.6172C36.5605 13.0176 37.5449 14.1777 38.7812 14.7227L39.3906 13.8555C37.7734 13.1641 36.6191 11.3477 36.625 9.58984ZM40.3398 16.9961H41.4531V6.49609H40.3398V16.9961ZM51.3086 6.49609H50.207V16.9961H51.3086V11.6758H52.9961V10.75H51.3086V6.49609ZM43.0703 9.05078H49.293V8.13672H46.7734V6.63672H45.6602V8.13672H43.0703V9.05078ZM43.6094 12.2617C43.6094 13.7031 44.7109 14.7051 46.2227 14.7109C47.7285 14.7051 48.8301 13.7031 48.8359 12.2617C48.8301 10.832 47.7285 9.82422 46.2227 9.82422C44.7109 9.82422 43.6094 10.832 43.6094 12.2617ZM44.6758 12.2617C44.6699 11.3652 45.3262 10.7441 46.2227 10.7383C47.1133 10.7441 47.7637 11.3652 47.7695 12.2617C47.7637 13.1758 47.1133 13.7852 46.2227 13.7734C45.3262 13.7852 44.6699 13.1758 44.6758 12.2617ZM62.2305 6.49609H61.1055V16.9961H62.2305V6.49609ZM53.6055 14.1836L54.1914 15.0859C57.7949 13.3574 59.1016 10.6973 59.1016 7.62109H54.1094V8.51172H57.9766C57.7598 10.9609 56.3945 12.8535 53.6055 14.1836Z" fill="#879298"/>
<rect x="0.5" y="0.5" width="73" height="23" rx="11.5" stroke="#D2DAE0"/>
</svg>
